<mxfile host="app.diagrams.net" agent="Mozilla/5.0 (Windows NT 10.0; Win64; x64) AppleWebKit/537.36 (KHTML, like Gecko) Chrome/126.0.0.0 Safari/537.36" version="24.7.6">
  <diagram name="第 1 页" id="m0oYI-1-ENmvq3IVs55a">
    <mxGraphModel dx="1387" dy="787" grid="0" gridSize="10" guides="1" tooltips="1" connect="1" arrows="1" fold="1" page="0" pageScale="1" pageWidth="827" pageHeight="1169" math="0" shadow="0">
      <root>
        <mxCell id="0" />
        <mxCell id="1" parent="0" />
        <mxCell id="7uT16rikvdsjlH4VoNbg-1" value="" style="group" vertex="1" connectable="0" parent="1">
          <mxGeometry x="60" y="120" width="70" height="540" as="geometry" />
        </mxCell>
        <mxCell id="7uT16rikvdsjlH4VoNbg-2" value="Sass平台" style="rounded=0;whiteSpace=wrap;html=1;fillColor=#d5e8d4;strokeColor=#82b366;" vertex="1" parent="7uT16rikvdsjlH4VoNbg-1">
          <mxGeometry width="70" height="40" as="geometry" />
        </mxCell>
        <mxCell id="7uT16rikvdsjlH4VoNbg-3" value="Sass平台" style="rounded=0;whiteSpace=wrap;html=1;fillColor=#d5e8d4;strokeColor=#82b366;" vertex="1" parent="7uT16rikvdsjlH4VoNbg-1">
          <mxGeometry y="500" width="70" height="40" as="geometry" />
        </mxCell>
        <mxCell id="7uT16rikvdsjlH4VoNbg-4" style="edgeStyle=orthogonalEdgeStyle;rounded=0;orthogonalLoop=1;jettySize=auto;html=1;exitX=0.5;exitY=1;exitDx=0;exitDy=0;entryX=0.5;entryY=0;entryDx=0;entryDy=0;endArrow=none;endFill=0;" edge="1" parent="7uT16rikvdsjlH4VoNbg-1" source="7uT16rikvdsjlH4VoNbg-2" target="7uT16rikvdsjlH4VoNbg-3">
          <mxGeometry relative="1" as="geometry" />
        </mxCell>
        <mxCell id="7uT16rikvdsjlH4VoNbg-5" value="1：下发启停离线分析" style="html=1;verticalAlign=bottom;endArrow=block;curved=0;rounded=0;" edge="1" parent="7uT16rikvdsjlH4VoNbg-1">
          <mxGeometry width="80" relative="1" as="geometry">
            <mxPoint x="38" y="80" as="sourcePoint" />
            <mxPoint x="168" y="80" as="targetPoint" />
          </mxGeometry>
        </mxCell>
        <mxCell id="7uT16rikvdsjlH4VoNbg-6" value="" style="group" vertex="1" connectable="0" parent="1">
          <mxGeometry x="170" y="120" width="110" height="540" as="geometry" />
        </mxCell>
        <mxCell id="7uT16rikvdsjlH4VoNbg-7" style="edgeStyle=orthogonalEdgeStyle;rounded=0;orthogonalLoop=1;jettySize=auto;html=1;exitX=0.5;exitY=1;exitDx=0;exitDy=0;entryX=0.5;entryY=0;entryDx=0;entryDy=0;endArrow=block;endFill=0;verticalAlign=bottom;curved=0;" edge="1" parent="7uT16rikvdsjlH4VoNbg-6" source="7uT16rikvdsjlH4VoNbg-8" target="7uT16rikvdsjlH4VoNbg-9">
          <mxGeometry relative="1" as="geometry" />
        </mxCell>
        <mxCell id="7uT16rikvdsjlH4VoNbg-8" value="CV-Perception" style="rounded=0;whiteSpace=wrap;html=1;fillColor=#ffe6cc;strokeColor=#d79b00;" vertex="1" parent="7uT16rikvdsjlH4VoNbg-6">
          <mxGeometry width="110" height="40" as="geometry" />
        </mxCell>
        <mxCell id="7uT16rikvdsjlH4VoNbg-9" value="CV-Perception" style="rounded=0;whiteSpace=wrap;html=1;fillColor=#ffe6cc;strokeColor=#d79b00;" vertex="1" parent="7uT16rikvdsjlH4VoNbg-6">
          <mxGeometry y="500" width="110" height="40" as="geometry" />
        </mxCell>
        <mxCell id="7uT16rikvdsjlH4VoNbg-10" value="2：查询SQL判断是否存在该任务(fileAnalysis)" style="html=1;verticalAlign=bottom;endArrow=block;curved=0;rounded=0;" edge="1" parent="7uT16rikvdsjlH4VoNbg-6">
          <mxGeometry width="80" relative="1" as="geometry">
            <mxPoint x="60" y="110" as="sourcePoint" />
            <mxPoint x="210" y="110" as="targetPoint" />
          </mxGeometry>
        </mxCell>
        <mxCell id="7uT16rikvdsjlH4VoNbg-11" value="4：更新fileAnalysis表中的状态Enable" style="html=1;verticalAlign=bottom;endArrow=block;curved=0;rounded=0;" edge="1" parent="7uT16rikvdsjlH4VoNbg-6">
          <mxGeometry width="80" relative="1" as="geometry">
            <mxPoint x="60" y="210" as="sourcePoint" />
            <mxPoint x="210" y="210" as="targetPoint" />
          </mxGeometry>
        </mxCell>
        <mxCell id="7uT16rikvdsjlH4VoNbg-30" value="3：一条fileAnalysis记录有多个task，根据所有task状态获取该job状态，&lt;div&gt;如果时finish状态，不允许启停&lt;/div&gt;" style="html=1;align=left;spacingLeft=2;endArrow=block;rounded=0;edgeStyle=orthogonalEdgeStyle;curved=0;rounded=0;fontSize=12;startSize=8;endSize=8;" edge="1" parent="7uT16rikvdsjlH4VoNbg-6">
          <mxGeometry relative="1" as="geometry">
            <mxPoint x="55" y="134" as="sourcePoint" />
            <Array as="points">
              <mxPoint x="85" y="164" />
            </Array>
            <mxPoint x="60" y="164" as="targetPoint" />
          </mxGeometry>
        </mxCell>
        <mxCell id="7uT16rikvdsjlH4VoNbg-31" value="5：根据启停进行路由添加或删除" style="html=1;verticalAlign=bottom;endArrow=block;curved=0;rounded=0;fontSize=12;startSize=8;endSize=8;" edge="1" parent="7uT16rikvdsjlH4VoNbg-6">
          <mxGeometry width="80" relative="1" as="geometry">
            <mxPoint x="56" y="278" as="sourcePoint" />
            <mxPoint x="351" y="278" as="targetPoint" />
          </mxGeometry>
        </mxCell>
        <mxCell id="7uT16rikvdsjlH4VoNbg-32" value="6：更新数据表task中的状态" style="html=1;verticalAlign=bottom;endArrow=block;curved=0;rounded=0;fontSize=12;startSize=8;endSize=8;" edge="1" parent="7uT16rikvdsjlH4VoNbg-6">
          <mxGeometry width="80" relative="1" as="geometry">
            <mxPoint x="55" y="360" as="sourcePoint" />
            <mxPoint x="209" y="360" as="targetPoint" />
          </mxGeometry>
        </mxCell>
        <mxCell id="7uT16rikvdsjlH4VoNbg-33" value="7：创建添加或删除离线分析任务&lt;div&gt;添加到排队队列（优先队列）&lt;/div&gt;&lt;div&gt;异步处理&lt;/div&gt;" style="html=1;align=left;spacingLeft=2;endArrow=block;rounded=0;edgeStyle=orthogonalEdgeStyle;curved=0;rounded=0;" edge="1" parent="7uT16rikvdsjlH4VoNbg-6">
          <mxGeometry relative="1" as="geometry">
            <mxPoint x="55" y="389" as="sourcePoint" />
            <Array as="points">
              <mxPoint x="93" y="419" />
            </Array>
            <mxPoint x="53" y="419" as="targetPoint" />
          </mxGeometry>
        </mxCell>
        <mxCell id="7uT16rikvdsjlH4VoNbg-14" value="" style="group" vertex="1" connectable="0" parent="1">
          <mxGeometry x="340" y="120" width="80" height="540" as="geometry" />
        </mxCell>
        <mxCell id="7uT16rikvdsjlH4VoNbg-15" style="edgeStyle=orthogonalEdgeStyle;rounded=0;orthogonalLoop=1;jettySize=auto;html=1;exitX=0.5;exitY=1;exitDx=0;exitDy=0;entryX=0.5;entryY=0;entryDx=0;entryDy=0;endArrow=none;endFill=0;" edge="1" parent="7uT16rikvdsjlH4VoNbg-14" source="7uT16rikvdsjlH4VoNbg-16" target="7uT16rikvdsjlH4VoNbg-17">
          <mxGeometry relative="1" as="geometry" />
        </mxCell>
        <mxCell id="7uT16rikvdsjlH4VoNbg-16" value="MySQL" style="rounded=0;whiteSpace=wrap;html=1;fillColor=#dae8fc;strokeColor=#6c8ebf;" vertex="1" parent="7uT16rikvdsjlH4VoNbg-14">
          <mxGeometry width="80" height="40" as="geometry" />
        </mxCell>
        <mxCell id="7uT16rikvdsjlH4VoNbg-17" value="MySQL" style="rounded=0;whiteSpace=wrap;html=1;fillColor=#dae8fc;strokeColor=#6c8ebf;" vertex="1" parent="7uT16rikvdsjlH4VoNbg-14">
          <mxGeometry y="500" width="80" height="40" as="geometry" />
        </mxCell>
        <mxCell id="7uT16rikvdsjlH4VoNbg-18" value="" style="group" vertex="1" connectable="0" parent="1">
          <mxGeometry x="480" y="120" width="80" height="540" as="geometry" />
        </mxCell>
        <mxCell id="7uT16rikvdsjlH4VoNbg-19" style="edgeStyle=orthogonalEdgeStyle;rounded=0;orthogonalLoop=1;jettySize=auto;html=1;exitX=0.5;exitY=1;exitDx=0;exitDy=0;entryX=0.5;entryY=0;entryDx=0;entryDy=0;endArrow=none;endFill=0;" edge="1" parent="7uT16rikvdsjlH4VoNbg-18" source="7uT16rikvdsjlH4VoNbg-20" target="7uT16rikvdsjlH4VoNbg-21">
          <mxGeometry relative="1" as="geometry" />
        </mxCell>
        <mxCell id="7uT16rikvdsjlH4VoNbg-20" value="EX" style="rounded=0;whiteSpace=wrap;html=1;fillColor=#fff2cc;strokeColor=#d6b656;" vertex="1" parent="7uT16rikvdsjlH4VoNbg-18">
          <mxGeometry width="80" height="40" as="geometry" />
        </mxCell>
        <mxCell id="7uT16rikvdsjlH4VoNbg-21" value="EX" style="rounded=0;whiteSpace=wrap;html=1;fillColor=#fff2cc;strokeColor=#d6b656;" vertex="1" parent="7uT16rikvdsjlH4VoNbg-18">
          <mxGeometry y="500" width="80" height="40" as="geometry" />
        </mxCell>
        <mxCell id="7uT16rikvdsjlH4VoNbg-22" value="" style="group" vertex="1" connectable="0" parent="1">
          <mxGeometry x="620" y="120" width="110" height="540" as="geometry" />
        </mxCell>
        <mxCell id="7uT16rikvdsjlH4VoNbg-23" style="edgeStyle=orthogonalEdgeStyle;rounded=0;orthogonalLoop=1;jettySize=auto;html=1;exitX=0.5;exitY=1;exitDx=0;exitDy=0;entryX=0.5;entryY=0;entryDx=0;entryDy=0;endArrow=none;endFill=0;" edge="1" parent="7uT16rikvdsjlH4VoNbg-22" source="7uT16rikvdsjlH4VoNbg-24" target="7uT16rikvdsjlH4VoNbg-25">
          <mxGeometry relative="1" as="geometry" />
        </mxCell>
        <mxCell id="7uT16rikvdsjlH4VoNbg-24" value="算子" style="html=1;whiteSpace=wrap;fillColor=#e1d5e7;strokeColor=#9673a6;" vertex="1" parent="7uT16rikvdsjlH4VoNbg-22">
          <mxGeometry width="110" height="40" as="geometry" />
        </mxCell>
        <mxCell id="7uT16rikvdsjlH4VoNbg-25" value="算子" style="html=1;whiteSpace=wrap;fillColor=#e1d5e7;strokeColor=#9673a6;" vertex="1" parent="7uT16rikvdsjlH4VoNbg-22">
          <mxGeometry y="500" width="110" height="40" as="geometry" />
        </mxCell>
        <mxCell id="7uT16rikvdsjlH4VoNbg-26" value="算子异步上报任务进度" style="html=1;verticalAlign=bottom;endArrow=open;dashed=1;endSize=8;curved=0;rounded=0;" edge="1" parent="1">
          <mxGeometry relative="1" as="geometry">
            <mxPoint x="672" y="580" as="sourcePoint" />
            <mxPoint x="222" y="580" as="targetPoint" />
          </mxGeometry>
        </mxCell>
      </root>
    </mxGraphModel>
  </diagram>
</mxfile>
